<svg fill="none" height="30" viewBox="0 0 30 30" width="30" xmlns="http://www.w3.org/2000/svg"><path clip-rule="evenodd" d="m27.7566 10.7788c-.6347-.272-1.2426-.5708-1.8484-.8686-.2696-.13254-.5388-.26488-.8098-.39456-.8799-.42104-1.7223-.89822-2.546-1.40347-.2997-.18387-.6292-.33614-.9533-.4859-.5664-.26176-1.1162-.51585-1.4615-.91757-.6253-.75919-.9559-1.63401-.9548-2.52625l.2621-.18245c1.19.00882 2.3498.28237 3.3322.78595.6407.28428 1.0074.7603 1.3745 1.23673.1584.20565.3169.41139.4975.60181.599.63156 1.1794 1.27716 1.741 1.93679s1.1045 1.3333 1.6099 2.04902zm-13.2596 14.1404v-.0001c-.0933-.691-.1866-1.3816-.2919-2.0698-.2278-1.4881-.3566-2.9867-.4847-4.4776-.0193-.2246-.0386-.449-.0582-.6732-.3392-1.7091-.4645-3.4382-.3745-5.1648.1985-1.771.7605-3.50837 1.6662-5.15075h.4306c.9057 1.64238 1.4677 3.37975 1.6661 5.15075.0901 1.7266-.0352 3.4557-.3744 5.1648-.1498 1.7122-.337 3.4245-.5429 5.1508-.2059 1.7262-.4493 3.4385-.7488 5.1507h-.4306c-.1791-1.0239-.3181-2.0528-.4569-3.0808zm-11.41555-15.72607c-.37155.42585-.74218.85067-1.08145 1.30487l.24336.1965c.936-.379 1.83457-.78597 2.71441-1.20701.87984-.42105 1.74096-.87016 2.58336-1.31928.254-.13541.52841-.25424.80273-.37302.63548-.27517 1.2704-.55011 1.6496-1.03046.67694-.73464 1.04224-1.60534 1.04834-2.4982l-.2434-.19649c-1.19248-.01418-2.36424.23473-3.36959.71577-.53584.2589-.87475.67111-1.22389 1.09578-.19976.24296-.40286.48999-.64811.71472-.67392.61754-1.3104 1.22103-1.87201 1.8947-.1981.23764-.40086.47003-.60335.70212z" fill="#fff" fill-rule="evenodd"/></svg>