<svg width="280" height="31" viewBox="0 0 280 31" fill="none" xmlns="http://www.w3.org/2000/svg">
<path d="M47.861 30.5221L30.7797 4.52601L30.4435 3.13412V29.1444L34.1505 29.5231L34.0227 30.4084L29.7618 30.3232L25.1695 30.4084L25.0985 29.5089L28.8481 29.1302V2.24407L25.1885 1.68543L25.2737 0.800113L29.7807 0.880596L32.6213 0.800113L47.9178 23.8893L48.3392 25.0681V2.07837L44.6559 1.68543L44.7411 0.800113L48.9546 0.880596L53.5895 0.800113L53.6747 1.68543L49.8873 2.06417V30.5221H47.861ZM70.9076 27.2743C68.7407 28.8468 66.3564 30.0955 63.8298 30.9813C58.9393 30.9813 54.3612 27.5679 54.3612 21.0392C54.3612 14.5106 58.3664 11.2203 63.5458 10.1267C68.9003 10.1267 70.7514 13.4407 70.7514 17.8767V19.226H57.6752V19.3112C57.6752 24.9166 60.5821 28.2449 65.1744 28.2449C66.9024 28.2449 68.886 27.4021 70.4862 26.389L70.9076 27.2743ZM57.7178 18.2176L66.945 18.0046V17.9193C66.945 14.3402 66.2727 11.5991 62.6841 11.5991C59.8246 11.5991 57.9688 14.042 57.7178 18.2176ZM72.4652 30.3942L72.38 29.5089L75.2868 29.2154V2.22987L72.38 2.56601L72.2521 1.72804L77.4599 0.336151L78.6577 0.265137V29.2154L81.7349 29.5089L81.6071 30.3942L77.0575 30.309L72.4652 30.3942ZM84.05 29.0876L83.6287 24.197H85.1058L86.8764 28.0744C87.9266 28.9958 89.2672 29.5186 90.6638 29.5515C93.031 29.5515 94.2856 28.1596 94.2856 26.3038C94.2856 24.4479 93.4429 23.6952 90.9148 22.2607L87.6718 20.4475C85.778 19.3538 84.2157 18.0046 84.2157 15.6895C84.2157 12.9909 86.5355 11.2629 91.1278 10.1267C93.2012 10.1561 95.2269 10.7538 96.9841 11.8547V16.447H95.7201L94.3282 12.7353C93.3044 11.8723 92.0026 11.4098 90.6638 11.4334C88.6423 11.4334 87.3498 12.6548 87.3498 14.3828C87.3498 15.983 88.4435 16.8257 90.5076 17.962L93.7932 19.7752C96.577 21.2902 97.5475 22.6158 97.5475 24.9166C97.5049 27.9513 95.1804 29.845 90.2567 30.9813C88.0637 30.8693 85.932 30.2189 84.05 29.0876ZM100.274 20.9966C100.274 14.719 103.981 11.3055 110.344 10.1077C115.779 10.1077 119.448 14.4065 119.448 20.0924C119.448 26.3275 115.737 29.8261 109.374 30.9813C103.939 30.9813 100.274 26.6873 100.274 20.9966ZM115.865 20.9966C115.865 15.3155 113.128 11.5564 109.293 11.5564C105.667 11.5564 103.854 15.1829 103.854 20.1113C103.854 25.2102 106.467 29.5799 110.43 29.5799C114.009 29.6178 115.865 25.8304 115.865 20.9966ZM121.763 30.3942L121.636 29.5089L124.585 29.2154V12.3565L121.593 12.8631L121.47 12.0204L126.777 10.548L127.79 10.5054L127.913 14.5485L134.868 10.1267C139.503 10.1267 140.303 12.1056 140.303 16.6553V29.2154L143.589 29.5089L143.508 30.3942L138.745 30.309L134.868 30.3942L134.74 29.5089L136.932 29.2154V16.3192C136.932 13.7058 135.962 12.7779 134.068 12.7779C132.468 12.7779 131.161 13.6632 129.476 14.719L127.956 15.6658V29.2154L130.233 29.5089L130.148 30.3942L126.413 30.309L121.763 30.3942ZM155.917 30.3942L155.794 29.5089L160.301 29.1302V2.07837H153.602L151.324 8.56437H150.378V0.814316L162.138 0.894799L173.973 0.814316V8.56437H173.003L170.726 2.07837H164.093V29.1444L168.434 29.5231L168.349 30.4084L162.194 30.3232L155.917 30.3942ZM173.741 30.3942L173.614 29.5089L176.563 29.2154V12.3565L173.571 12.8631L173.448 12.0204L178.755 10.548L179.725 10.5054L179.768 16.3618L184.403 10.335H187.31V14.042H183.56C183.087 14.1272 180.99 16.4896 180.398 17.2045L179.924 17.711V29.1444L184.057 29.4805L183.93 30.4274L178.248 30.3421L173.741 30.3942ZM194.643 30.9813C191.187 30.9813 188.867 29.0876 188.867 25.8824C188.867 24.4621 189.341 23.2312 190.681 21.8393L199.95 18.7621V16.5322C199.95 13.9993 199.823 12.1056 196.636 12.1056C195.541 12.1436 194.459 12.3561 193.431 12.7353L192.546 16.4896H189.516V13.5212L196.93 10.1077C202.322 10.1077 203.335 11.9163 203.335 16.5937V25.3569C203.289 26.5805 203.549 27.7963 204.093 28.8935L206.328 28.7278L206.455 29.5705L201.129 30.5647L200.078 27.1086L194.643 30.9813ZM198.374 27.2507L199.974 26.157V19.7326L193.782 22.1755C193.333 22.5519 192.972 23.023 192.727 23.555C192.481 24.0871 192.356 24.6668 192.361 25.2528C192.361 27.4448 193.668 28.4958 195.202 28.4958C196.409 28.4958 197.631 27.7241 198.374 27.2507ZM215.271 31.0002L207.871 11.8926L205.3 11.5564L205.428 10.7137L209.978 10.799L214.191 10.7137L214.276 11.5564L211.62 11.8926L217.098 26.8104L217.269 28.2307L222.874 11.8784L220.303 11.5422L220.388 10.6995L223.968 10.7848L227.211 10.6995L227.296 11.5422L224.602 11.8784L217.941 29.6178L215.271 31.0002ZM243.544 27.2933C241.37 28.8683 238.978 30.1172 236.442 31.0002C231.557 31.0002 226.974 27.5868 226.974 21.0582C226.974 14.5296 230.974 11.2392 236.158 10.1456C241.513 10.1456 243.364 13.4596 243.364 17.8957V19.2449H230.288V19.3302C230.288 24.9356 233.195 28.2638 237.787 28.2638C239.515 28.2638 241.499 27.4211 243.099 26.4079L243.544 27.2933ZM230.33 18.2176L239.562 18.0046V17.9193C239.562 14.3402 238.89 11.5991 235.301 11.5991C232.461 11.5991 230.567 14.042 230.33 18.2176ZM245.078 30.3942L244.993 29.5089L247.899 29.2154V2.22987L244.993 2.56601L244.865 1.72804L250.072 0.336151L251.27 0.265137V29.2154L254.348 29.5089L254.239 30.3942L249.689 30.309L245.078 30.3942ZM279.993 15.4149L268.603 14.1177C267.116 13.9331 262.76 15.4149 262.76 15.4149V15.7037C262.76 15.7037 267.121 17.1571 268.607 16.9867L279.998 15.7037L279.993 15.4149ZM267.438 23.5579L264.436 18.5727C264.129 18.0708 262.121 18.0992 262.121 18.0992L261.913 18.2981C261.913 18.2981 261.861 20.2344 262.339 20.5516C263.452 21.2902 267.23 23.7709 267.23 23.7709L267.438 23.5579ZM267.32 7.65065L262.334 10.6427C261.828 10.9505 261.861 12.9578 261.861 12.9578L262.055 13.1661C262.055 13.1661 263.996 13.2182 264.313 12.74L267.495 7.84002L267.32 7.65065ZM0.00671387 15.9735L11.3974 17.2707C12.884 17.4412 17.2443 15.9735 17.2443 15.9735V15.6848C17.2443 15.6848 12.884 14.2361 11.3974 14.4018L0.00671387 15.6895V15.9735ZM12.5621 7.84002L15.5636 12.8205C15.8714 13.3271 17.8787 13.2939 17.8787 13.2939L18.087 13.0998C18.087 13.0998 18.1391 11.1588 17.6609 10.8416L12.7893 7.63644L12.5621 7.84002ZM12.6852 23.7425L17.6657 20.7315C18.1722 20.4285 18.1391 18.4212 18.1391 18.4212L17.945 18.2129C17.945 18.2129 16.0039 18.1608 15.6867 18.639L12.4674 23.5295L12.6852 23.7425Z" fill="#FAFAFA"/>
</svg>
