<svg width="156" height="23" viewBox="0 0 156 23" fill="none" xmlns="http://www.w3.org/2000/svg">
<path d="M16.2991 1.28705L13.4306 1.22852L13.3732 1.81382L15.8975 2.10647V18.0853L15.6106 17.2659L5.16937 1.22852L3.27617 1.28705L0.178216 1.22852L0.120846 1.81382L2.64511 2.22353V20.8948L0.0634766 21.1289L0.120846 21.7727L3.27617 21.7142L6.14465 21.7727L6.25939 21.1289L3.73513 20.8948V2.80884L3.9646 3.74533L15.5533 21.8313H16.9301V2.10647L19.5117 1.81382L19.4544 1.22852L16.2991 1.28705Z" fill="black"/>
<path d="M27.3714 20.2501C24.216 20.2501 22.2655 17.9089 22.2655 14.0458V13.9873H31.1578V13.0508C31.1578 10.0072 29.8956 7.66602 26.224 7.66602C22.6671 8.42691 19.9707 10.7681 19.9707 15.275C19.9707 19.8404 23.126 22.1816 26.4535 22.1816C28.2893 21.4792 29.7809 20.7183 31.2725 19.6062L30.9857 19.0209C29.8956 19.6648 28.5188 20.2501 27.3714 20.2501ZM25.6503 8.71957C28.0598 8.71957 28.5761 10.5925 28.5761 13.1094V13.1679L22.2655 13.3435C22.4376 10.4169 23.6997 8.71957 25.6503 8.71957Z" fill="black"/>
<path d="M36.5505 0.818359L35.7473 0.87689L32.1904 1.87191L32.2478 2.45721L34.2557 2.22309V20.9529L32.2478 21.1284L32.3052 21.7723L35.4605 21.7138L38.5584 21.7723L38.6158 21.1284L36.5505 20.9529V0.818359Z" fill="black"/>
<path d="M46.8194 14.3979L44.582 13.1103C43.2051 12.3494 42.4019 11.7641 42.4019 10.652C42.4019 9.48137 43.3199 8.60342 44.6967 8.60342C45.6146 8.60342 46.3604 8.83754 47.221 9.48137L48.1963 12.0567H49.0568V8.83754C48.1389 8.25223 46.5899 7.6084 45.0409 7.6084C41.8856 8.42783 40.3366 9.59844 40.3366 11.4714C40.3366 13.1103 41.4267 14.0468 42.6888 14.8077L44.9262 16.0953C46.6473 17.0903 47.221 17.5586 47.221 18.9048C47.221 20.1925 46.3604 21.1875 44.7541 21.1875C43.7214 21.1875 42.8609 20.7192 42.1725 20.1339L40.9677 17.4415H39.9351L40.2219 20.8363C41.3119 21.5387 43.1478 22.124 44.4672 22.124C47.852 21.3631 49.401 20.0169 49.4584 17.9098C49.401 16.388 48.7126 15.4515 46.8194 14.3979Z" fill="black"/>
<path d="M58.1212 7.66602C53.7611 8.48544 51.2368 10.8852 51.2368 15.2165C51.2368 19.1965 53.7611 22.1816 57.4327 22.1816C61.7928 21.4207 64.3171 18.9624 64.3171 14.6311C64.3171 10.6511 61.7928 7.66602 58.1212 7.66602ZM58.1785 21.1866C55.4822 21.1866 53.7037 18.143 53.7037 14.6311C53.7037 11.1778 54.9085 8.66103 57.4327 8.66103C60.0717 8.66103 61.9076 11.2949 61.9076 15.2165C61.8502 18.6112 60.5881 21.1866 58.1785 21.1866Z" fill="black"/>
<path d="M78.4873 12.2314C78.4873 9.07075 77.9136 7.66602 74.7582 7.66602L70.0539 10.7681L69.9966 7.95867L69.3081 8.0172L65.6938 9.07075L65.7512 9.65605L67.8165 9.30487V21.011L65.8086 21.1866L65.866 21.7719L69.0213 21.7133L71.6029 21.7719L71.6603 21.1866L70.1113 21.011V11.529L71.144 10.8852C72.2913 10.1828 73.2093 9.53899 74.2993 9.53899C75.5614 9.53899 76.2498 10.1828 76.2498 11.9973V20.9524L74.7582 21.128L74.8156 21.7133L77.4546 21.6548L80.7247 21.7133L80.782 21.128L78.5446 20.9524V12.2314H78.4873Z" fill="black"/>
<path d="M100.804 1.22852L92.7725 1.28705L84.7407 1.22852V6.61332H85.3718L86.9208 2.10647H91.5103V20.8948L88.4124 21.1289L88.5271 21.7727L92.7725 21.7142L96.9604 21.7727L97.0178 21.1289L94.092 20.8948V2.10647H98.6242L100.173 6.61332H100.804V1.22852Z" fill="black"/>
<path d="M104.763 11.9975V7.90033L104.074 7.95886L100.46 9.01241L100.517 9.59771L102.583 9.24653V20.9526L100.575 21.1282L100.632 21.7135L103.73 21.655L107.631 21.7135L107.746 21.0697L104.935 20.8356V12.934L105.222 12.5828C105.623 12.056 107.057 10.4171 107.402 10.3586H109.983V7.8418H107.918L104.763 11.9975Z" fill="black"/>
<path d="M121.285 20.7183C120.941 20.016 120.768 19.4306 120.768 18.26V12.1729C120.768 8.89516 120.08 7.66602 116.408 7.66602L111.36 10.0658V12.1143H113.425L113.999 9.48046C114.802 9.18781 115.49 9.01222 116.179 9.01222C118.359 9.01222 118.474 10.2999 118.474 12.0558V13.6947L112.163 15.8603C111.245 16.8553 110.901 17.6747 110.901 18.6698C110.901 20.8939 112.507 22.2401 114.859 22.2401L118.588 19.5477L119.277 21.9475L122.891 21.2451L122.776 20.6598L121.285 20.7183ZM118.474 18.7868L117.384 19.5477C116.867 19.8989 116.064 20.4257 115.204 20.4257C114.171 20.4257 113.253 19.7233 113.253 18.143C113.253 17.265 113.597 16.5627 114.228 16.0359L118.474 14.3385V18.7868Z" fill="black"/>
<path d="M137.062 8.07617L134.825 8.1347L132.415 8.07617L132.358 8.66148L134.079 8.8956L130.292 20.2505L130.178 19.2555L126.449 8.8956L128.227 8.66148L128.17 8.07617L125.301 8.1347L122.203 8.07617L122.146 8.66148L123.867 8.8956L128.916 22.182L130.751 21.2455L135.284 8.8956L137.119 8.66148L137.062 8.07617Z" fill="black"/>
<path d="M144.233 20.2501C141.078 20.2501 139.127 17.9089 139.127 14.0458V13.9873H148.02V13.0508C148.02 10.0072 146.757 7.66602 143.086 7.66602C139.529 8.42691 136.833 10.7681 136.833 15.275C136.833 19.8404 139.988 22.1816 143.315 22.1816C145.151 21.4792 146.643 20.7183 148.134 19.6062L147.847 19.0209C146.757 19.6648 145.438 20.2501 144.233 20.2501ZM142.569 8.71957C144.979 8.71957 145.495 10.5925 145.495 13.1094V13.1679L139.185 13.3435C139.357 10.4169 140.619 8.71957 142.569 8.71957Z" fill="black"/>
<path d="M153.412 0.818359L152.609 0.87689L149.052 1.87191L149.166 2.45721L151.117 2.22309V20.9529L149.166 21.1284L149.224 21.7723L152.322 21.7138L155.42 21.7723L155.535 21.1284L153.412 20.9529V0.818359Z" fill="black"/>
</svg>
