<svg version="1.2" xmlns="http://www.w3.org/2000/svg" viewBox="0 0 62 45" width="62" height="45"><defs><clipPath clipPathUnits="userSpaceOnUse" id="cp1"><path d="m0.82 0h60.94v44.65h-60.94z"/></clipPath></defs><style>tspan{white-space:pre}.a{fill:#030d34}.b{font-size: 24px;fill: #030d34;font-weight: 400;font-family: "PlayfairDisplay-Regular", "Playfair Display"}</style><g clip-path="url(#cp1)"><path class="a" d="m61 22.3q-1.6 0.2-3.2 0.3c-1.1 0.2-2.2 0.3-3.2 0.3q-1.6 0.3-3.2 0.2-1.8-0.1-3.3-0.8v-0.2q1.5-0.6 3.3-0.7 1.6-0.2 3.2 0.1 1.6 0.1 3.2 0.3 1.6 0.1 3.2 0.3z"/><text style="transform:matrix(1.241,0,0,1.635,20.116,36.436)" ><tspan x="0" y="0" class="b">O
</tspan></text><path class="a" d="m50.2 16.3q-0.3 0.7-0.8 1.3-0.4 0.5-0.8 1.2c-0.4 0.3-0.6 0.8-0.9 1.1q-0.7 0.4-1.6 0.4l-0.1-0.1c0-0.6 0.2-1.1 0.5-1.5 0.2-0.5 0.8-0.7 1.1-1q0.7-0.3 1.3-0.7 0.5-0.5 1.2-0.8z"/><path class="a" d="m50.1 28.3c-0.5-0.2-0.9-0.5-1.3-0.7q-0.7-0.5-1.2-0.9c-0.3-0.3-0.9-0.5-1.1-0.8-0.3-0.6-0.5-1.1-0.5-1.6l0.2-0.2c0.5 0 1.1 0.2 1.5 0.5 0.4 0.3 0.7 0.7 0.9 1.1q0.4 0.7 0.8 1.2 0.5 0.7 0.8 1.3z"/><path class="a" d="m1 22.3c1.1-0.2 2.1-0.2 3.1-0.3q1.6-0.2 3.1-0.3 1.6-0.2 3.2-0.1 1.6 0.1 3.1 0.7v0.1q-1.5 0.7-3.1 0.8-1.6 0.1-3.2-0.1c-1-0.1-2-0.2-3.1-0.4-1.1-0.1-2-0.2-3.1-0.3z"/><path class="a" d="m10.2 28.5q0.4-0.5 0.8-1.1 0.4-0.7 0.8-1.2c0.3-0.3 0.4-0.9 0.9-1.1 0.4-0.3 0.9-0.4 1.5-0.4l0.2 0.1q-0.1 0.8-0.5 1.5c-0.3 0.4-0.8 0.6-1.1 0.8-0.4 0.4-0.9 0.6-1.2 0.9q-0.6 0.3-1.3 0.8z"/><path class="a" d="m10.4 15.7c0.5 0.3 0.9 0.5 1.3 0.7q0.5 0.5 1.1 1c0.4 0.3 0.9 0.4 1.2 0.9 0.2 0.4 0.4 0.9 0.4 1.5l-0.1 0.1c-0.6 0-1.1-0.1-1.6-0.5-0.3-0.3-0.6-0.7-0.9-1.1q-0.4-0.6-0.7-1.2-0.5-0.6-0.8-1.2z"/></g></svg>